<svg width="211" height="27" viewBox="0 0 211 27" fill="none" xmlns="http://www.w3.org/2000/svg">
<g clip-path="url(#clip0_99_5)">
<path d="M0.92 22C0.776 22 0.656 21.96 0.56 21.88C0.48 21.784 0.44 21.664 0.44 21.52V5.68C0.44 5.536 0.48 5.424 0.56 5.344C0.656 5.248 0.776 5.2 0.92 5.2H12.944C14.608 5.2 15.912 5.592 16.856 6.376C17.816 7.16 18.296 8.2 18.296 9.496C18.296 10.312 18.104 11 17.72 11.56C17.336 12.104 16.824 12.536 16.184 12.856C16.072 12.904 16.016 12.968 16.016 13.048C16.016 13.144 16.08 13.216 16.208 13.264C16.96 13.504 17.568 13.944 18.032 14.584C18.496 15.208 18.728 16 18.728 16.96C18.728 18.512 18.224 19.744 17.216 20.656C16.208 21.552 14.76 22 12.872 22H0.92ZM12.656 11.92C13.472 11.92 14.096 11.744 14.528 11.392C14.976 11.04 15.2 10.52 15.2 9.832V9.76C15.2 9.088 14.976 8.576 14.528 8.224C14.096 7.872 13.472 7.696 12.656 7.696H3.8C3.64 7.696 3.56 7.776 3.56 7.936V11.68C3.56 11.84 3.64 11.92 3.8 11.92H12.656ZM12.704 19.504C13.6 19.504 14.296 19.296 14.792 18.88C15.304 18.448 15.56 17.824 15.56 17.008V16.912C15.56 16.096 15.304 15.48 14.792 15.064C14.296 14.632 13.6 14.416 12.704 14.416H3.8C3.64 14.416 3.56 14.496 3.56 14.656V19.264C3.56 19.424 3.64 19.504 3.8 19.504H12.704ZM21.4942 22C21.1742 22 21.0142 21.84 21.0142 21.52V9.52C21.0142 9.2 21.1742 9.04 21.4942 9.04H23.5102C23.8302 9.04 23.9902 9.2 23.9902 9.52V10.504C23.9902 10.696 24.0542 10.792 24.1822 10.792C24.2462 10.792 24.3102 10.752 24.3742 10.672C24.8222 10.112 25.4622 9.656 26.2942 9.304C27.1262 8.936 28.0382 8.752 29.0302 8.752H30.8782C31.0542 8.752 31.1902 8.808 31.2862 8.92C31.3982 9.016 31.4542 9.152 31.4542 9.328V10.888C31.4542 11.064 31.3982 11.208 31.2862 11.32C31.1902 11.416 31.0542 11.464 30.8782 11.464H27.1822C26.1902 11.464 25.4062 11.704 24.8302 12.184C24.2702 12.648 23.9902 13.272 23.9902 14.056V21.52C23.9902 21.84 23.8302 22 23.5102 22H21.4942ZM33.5868 8.176C33.2668 8.176 33.1068 8.016 33.1068 7.696V5.68C33.1068 5.36 33.2668 5.2 33.5868 5.2H35.6988C36.0188 5.2 36.1788 5.36 36.1788 5.68V7.696C36.1788 8.016 36.0188 8.176 35.6988 8.176H33.5868ZM33.6348 22C33.3148 22 33.1548 21.84 33.1548 21.52V9.52C33.1548 9.2 33.3148 9.04 33.6348 9.04H35.6508C35.9708 9.04 36.1308 9.2 36.1308 9.52V21.52C36.1308 21.84 35.9708 22 35.6508 22H33.6348ZM44.9501 22.288C43.4621 22.288 42.2141 22 41.2061 21.424C40.1981 20.848 39.4381 20.056 38.9261 19.048C38.4301 18.04 38.1821 16.888 38.1821 15.592V15.424C38.1821 14.144 38.4301 13 38.9261 11.992C39.4381 10.984 40.2061 10.192 41.2301 9.616C42.2701 9.04 43.5501 8.752 45.0701 8.752H48.9581C50.7021 8.752 52.0621 9.304 53.0381 10.408C53.1021 10.472 53.1741 10.504 53.2541 10.504C53.3981 10.504 53.4701 10.424 53.4701 10.264V5.68C53.4701 5.36 53.6301 5.2 53.9501 5.2H55.8941C56.2141 5.2 56.3741 5.36 56.3741 5.68V21.52C56.3741 21.84 56.2141 22 55.8941 22H53.9501C53.6301 22 53.4701 21.84 53.4701 21.52V20.776C53.4701 20.616 53.3981 20.536 53.2541 20.536C53.1741 20.536 53.1021 20.568 53.0381 20.632C51.9821 21.736 50.5821 22.288 48.8381 22.288H44.9501ZM49.4621 19.792C50.7101 19.792 51.6861 19.456 52.3901 18.784C53.1101 18.112 53.4701 17.112 53.4701 15.784V15.256C53.4701 13.912 53.1101 12.912 52.3901 12.256C51.6861 11.584 50.7101 11.248 49.4621 11.248H45.1901C43.9421 11.248 42.9661 11.6 42.2621 12.304C41.5581 12.992 41.2061 14.024 41.2061 15.4V15.64C41.2061 17.016 41.5581 18.056 42.2621 18.76C42.9661 19.448 43.9421 19.792 45.1901 19.792H49.4621ZM65.1532 26.8C63.2172 26.8 61.7212 26.432 60.6652 25.696C59.6252 24.96 58.9692 23.984 58.6972 22.768L58.6732 22.624C58.6732 22.512 58.7052 22.416 58.7692 22.336C58.8492 22.272 58.9532 22.24 59.0812 22.24H61.1452C61.3852 22.24 61.5532 22.36 61.6492 22.6L61.7932 22.936C62.2252 23.896 63.3292 24.376 65.1052 24.376H69.7132C70.9452 24.376 71.9052 24.088 72.5932 23.512C73.2812 22.952 73.6252 22.152 73.6252 21.112V20.464C73.6252 20.336 73.5692 20.272 73.4572 20.272C73.3772 20.272 73.3052 20.304 73.2412 20.368C72.2652 21.392 70.8652 21.904 69.0412 21.904H65.1532C63.6652 21.904 62.4172 21.624 61.4092 21.064C60.4012 20.504 59.6412 19.736 59.1292 18.76C58.6332 17.784 58.3852 16.664 58.3852 15.4V15.232C58.3852 13.984 58.6332 12.872 59.1292 11.896C59.6412 10.92 60.4092 10.152 61.4332 9.592C62.4732 9.032 63.7532 8.752 65.2732 8.752H69.1612C71.0012 8.752 72.3612 9.24 73.2412 10.216C73.3052 10.296 73.3932 10.336 73.5052 10.336C73.6492 10.336 73.7212 10.256 73.7212 10.096V9.52C73.7212 9.2 73.8812 9.04 74.2012 9.04H76.0492C76.3692 9.04 76.5292 9.2 76.5292 9.52V21.136C76.5292 22.256 76.2652 23.24 75.7372 24.088C75.2092 24.952 74.4412 25.616 73.4332 26.08C72.4252 26.56 71.2252 26.8 69.8332 26.8H65.1532ZM69.6652 19.408C70.9132 19.408 71.8892 19.088 72.5932 18.448C73.3132 17.808 73.6732 16.856 73.6732 15.592V15.064C73.6732 13.8 73.3132 12.848 72.5932 12.208C71.8892 11.568 70.9132 11.248 69.6652 11.248H65.3932C64.1452 11.248 63.1692 11.584 62.4652 12.256C61.7612 12.912 61.4092 13.896 61.4092 15.208V15.424C61.4092 16.752 61.7612 17.752 62.4652 18.424C63.1692 19.08 64.1452 19.408 65.3932 19.408H69.6652ZM85.2374 22.288C83.8294 22.288 82.6214 22.008 81.6134 21.448C80.6054 20.888 79.8374 20.112 79.3094 19.12C78.7974 18.128 78.5414 16.976 78.5414 15.664V15.376C78.5414 14.064 78.8214 12.912 79.3814 11.92C79.9414 10.912 80.7494 10.136 81.8054 9.592C82.8614 9.032 84.1174 8.752 85.5734 8.752H89.7734C91.0694 8.752 92.1894 9.032 93.1334 9.592C94.0934 10.152 94.8214 10.904 95.3174 11.848C95.8134 12.792 96.0454 13.824 96.0134 14.944L95.9894 15.928C95.9894 16.28 95.8374 16.456 95.5334 16.456H81.9014C81.8054 16.456 81.7334 16.488 81.6854 16.552C81.6534 16.6 81.6374 16.68 81.6374 16.792V16.816C81.6374 17.36 81.8054 17.864 82.1414 18.328C82.4934 18.776 82.9734 19.144 83.5814 19.432C84.2054 19.704 84.9174 19.84 85.7174 19.84H89.5094C91.1894 19.84 92.2774 19.336 92.7734 18.328L92.8934 18.088C92.9894 17.912 93.1334 17.824 93.3254 17.824H95.5814C95.7094 17.824 95.7974 17.864 95.8454 17.944C95.8934 18.008 95.8934 18.096 95.8454 18.208L95.7254 18.568C95.3254 19.704 94.5974 20.608 93.5414 21.28C92.4854 21.952 91.0694 22.288 89.2934 22.288H85.2374ZM92.6534 14.272C92.8294 14.272 92.9174 14.184 92.9174 14.008V13.888C92.9174 13.088 92.5894 12.424 91.9334 11.896C91.2774 11.368 90.4454 11.104 89.4374 11.104H85.5974C84.8454 11.104 84.1734 11.24 83.5814 11.512C82.9894 11.784 82.5254 12.144 82.1894 12.592C81.8694 13.04 81.7094 13.504 81.7094 13.984V14.008C81.7094 14.184 81.7974 14.272 81.9734 14.272H92.6534Z" fill="white"/>
</g>
<defs>
<clipPath id="clip0_99_5">
<rect width="211" height="27" fill="white"/>
</clipPath>
</defs>
</svg>
